<svg width="111" height="34" viewBox="0 0 111 34" fill="none" xmlns="http://www.w3.org/2000/svg">
<g opacity="0.9">
<path d="M14.7109 3.95624C22.007 3.95629 27.9219 9.87106 27.9219 17.1672C27.9218 24.4632 22.007 30.3781 14.7109 30.3781C7.41482 30.3781 1.50005 24.4633 1.5 17.1672C1.5 9.87103 7.41479 3.95624 14.7109 3.95624Z" stroke="white" stroke-width="3"/>
<path d="M24.0521 7.82539C25.2225 8.99576 25.6615 11.0545 24.9595 13.7847C24.2671 16.4771 22.513 19.5374 19.797 22.2534C17.081 24.9694 14.0207 26.7235 11.3283 27.4158C8.59811 28.1179 6.53937 27.6788 5.369 26.5085C4.19884 25.3381 3.76034 23.2799 4.46233 20.5499C5.15468 17.8574 6.90871 14.7972 9.62477 12.0812C12.3408 9.36511 15.401 7.6111 18.0935 6.91872C20.8235 6.21672 22.8817 6.65523 24.0521 7.82539Z" stroke="white" stroke-width="3"/>
<path d="M5.36872 7.8259C6.53909 6.65553 8.59783 6.21649 11.328 6.91854C14.0204 7.61094 17.0807 9.36496 19.7967 12.081C22.5128 14.797 24.2668 17.8572 24.9592 20.5497C25.6612 23.2799 25.2222 25.3386 24.0518 26.509C22.8814 27.6791 20.8232 28.1177 18.0932 27.4157C15.4007 26.7233 12.3406 24.9693 9.62448 22.2532C6.90844 19.5372 5.15443 16.477 4.46205 13.7845C3.76005 11.0545 4.19856 8.99632 5.36872 7.8259Z" stroke="white" stroke-width="3"/>
<path d="M42.0262 23.8472C45.1756 23.8472 47.302 22.2023 47.302 19.5744C47.302 14.0177 39.9198 16.3848 39.9198 13.456C39.9198 12.6335 40.6621 12.0718 41.8456 12.0718C43.1897 12.0718 44.0322 12.794 44.1325 13.8973H47.0011C46.9209 11.2293 44.8747 9.48407 41.8456 9.48407C38.9971 9.48407 36.991 11.129 36.991 13.456C36.991 18.9726 44.2729 16.8662 44.2729 19.6145C44.2729 20.6777 43.3702 21.2394 42.0262 21.2394C40.5417 21.2394 39.5989 20.3367 39.4785 18.9124H36.5898C36.7102 21.9014 38.8366 23.8472 42.0262 23.8472Z" fill="white"/>
<path d="M47.9842 27.779H50.7726V22.784C51.3142 23.4661 52.2972 23.8472 53.4406 23.8472C56.3493 23.8472 58.3152 21.781 58.3152 18.6315C58.3152 15.4821 56.5098 13.4159 53.6813 13.4159C52.3774 13.4159 51.3744 13.8973 50.7726 14.6797V13.5764H47.9842V27.779ZM53.0996 21.44C51.5951 21.44 50.6121 20.3166 50.6121 18.6315C50.6121 16.9264 51.5951 15.803 53.0996 15.803C54.564 15.803 55.567 16.9264 55.567 18.6315C55.567 20.3166 54.564 21.44 53.0996 21.44Z" fill="white"/>
<path d="M58.9899 23.6867H61.7783V18.1501C61.7783 16.8462 62.6409 15.9033 63.8646 15.9033C65.0281 15.9033 65.8305 16.786 65.8305 18.0097V23.6867H68.6188V17.3878C68.6188 15.0608 67.1344 13.4159 64.8676 13.4159C63.4634 13.4159 62.36 13.9976 61.7783 14.9806V9.18317H58.9899V23.6867Z" fill="white"/>
<path d="M76.4191 20.2564C76.1985 21.119 75.4562 21.5603 74.3329 21.5603C72.9287 21.5603 72.0259 20.6777 71.8253 19.2534H79.0871C79.1072 19.0327 79.1273 18.7318 79.1273 18.3507C79.1273 16.0438 77.703 13.4159 74.1323 13.4159C70.702 13.4159 69.1373 16.0438 69.1373 18.6115C69.1373 21.1591 70.9026 23.8472 74.3329 23.8472C76.8203 23.8472 78.7461 22.443 79.1473 20.2564H76.4191ZM74.1323 15.462C75.4763 15.462 76.2587 16.3647 76.3389 17.4881H71.8655C72.1062 16.0839 72.8685 15.462 74.1323 15.462Z" fill="white"/>
<path d="M86.4402 15.9033V13.5764H85.0015C83.7778 13.5764 83.0155 13.9976 82.4739 15.2614V13.5764H79.6654V23.6867H82.4739V18.772C82.4739 17.0468 83.0958 15.9033 84.4799 15.9033H86.4402Z" fill="white"/>
<path d="M96.0691 13.5764H93.2607V19.113C93.2607 20.3968 92.3981 21.3597 91.1744 21.3597C90.031 21.3597 89.2285 20.4771 89.2285 19.2534V13.5764H86.4402V19.8753C86.4402 22.1822 87.9246 23.8472 90.1914 23.8472C91.5756 23.8472 92.699 23.2454 93.2607 22.2825V23.6867H96.0691V13.5764Z" fill="white"/>
<path d="M97.2729 23.6867H100.061V9.18317H97.2729V23.6867Z" fill="white"/>
<path d="M108.022 20.2564C107.801 21.119 107.059 21.5603 105.936 21.5603C104.531 21.5603 103.629 20.6777 103.428 19.2534H110.69C110.71 19.0327 110.73 18.7318 110.73 18.3507C110.73 16.0438 109.306 13.4159 105.735 13.4159C102.305 13.4159 100.74 16.0438 100.74 18.6115C100.74 21.1591 102.505 23.8472 105.936 23.8472C108.423 23.8472 110.349 22.443 110.75 20.2564H108.022ZM105.735 15.462C107.079 15.462 107.861 16.3647 107.942 17.4881H103.468C103.709 16.0839 104.471 15.462 105.735 15.462Z" fill="white"/>
</g>
</svg>
